<svg xmlns="http://www.w3.org/2000/svg" width="100%" height="auto" viewBox="0 0 360 450" preserveAspectRatio="xMidYMid meet">
<rect width="360" height="100%" fill="#0f172a"/>
<text x="20" y="32" fill="#94a3b8" font-family="Segoe UI, Arial, sans-serif" font-size="16">Fluxo do projeto</text>
<rect x="40" y="50" width="280" height="52" rx="12" fill="#1e293b" stroke="#2dd4bf" stroke-width="2"/>
<text x="180" y="82" text-anchor="middle" fill="#e2e8f0" font-family="Segoe UI, Arial, sans-serif" font-size="16" font-weight="700">Home</text>
<line x1="180" y1="102" x2="180" y2="128" stroke="#2dd4bf" stroke-width="2"/>
<polygon points="174,122 186,122 180,128" fill="#2dd4bf"/>
<rect x="40" y="128" width="280" height="52" rx="12" fill="#1e293b" stroke="#2dd4bf" stroke-width="2"/>
<text x="180" y="160" text-anchor="middle" fill="#e2e8f0" font-family="Segoe UI, Arial, sans-serif" font-size="16" font-weight="700">Pesquisa</text>
<line x1="180" y1="180" x2="180" y2="206" stroke="#2dd4bf" stroke-width="2"/>
<polygon points="174,200 186,200 180,206" fill="#2dd4bf"/>
<rect x="40" y="206" width="280" height="52" rx="12" fill="#1e293b" stroke="#2dd4bf" stroke-width="2"/>
<text x="180" y="238" text-anchor="middle" fill="#e2e8f0" font-family="Segoe UI, Arial, sans-serif" font-size="16" font-weight="700">Resultado</text>
<line x1="180" y1="258" x2="180" y2="284" stroke="#2dd4bf" stroke-width="2"/>
<polygon points="174,278 186,278 180,284" fill="#2dd4bf"/>
<rect x="40" y="284" width="280" height="52" rx="12" fill="#1e293b" stroke="#2dd4bf" stroke-width="2"/>
<text x="180" y="316" text-anchor="middle" fill="#e2e8f0" font-family="Segoe UI, Arial, sans-serif" font-size="16" font-weight="700">Saúde</text>
<line x1="180" y1="336" x2="180" y2="362" stroke="#2dd4bf" stroke-width="2"/>
<polygon points="174,356 186,356 180,362" fill="#2dd4bf"/>
<rect x="40" y="362" width="280" height="52" rx="12" fill="#1e293b" stroke="#2dd4bf" stroke-width="2"/>
<text x="180" y="394" text-anchor="middle" fill="#e2e8f0" font-family="Segoe UI, Arial, sans-serif" font-size="16" font-weight="700">Contato</text>
</svg>
